<svg xmlns="http://www.w3.org/2000/svg" width="60" height="60" viewBox="0 0 60 60">
  <g fill="#a08060">
    <rect x="0" y="19" width="60" height="2"/>
    <rect x="0" y="39" width="60" height="2"/>
    <rect x="19" y="0" width="2" height="60"/>
    <rect x="39" y="0" width="2" height="60"/>
  </g>
  <g fill="#012731">
    <rect x="21" y="21" width="18" height="18"/>
  </g>
  <g fill="#5aaa44">
    <rect x="25" y="25" width="10" height="10"/>
  </g>
  <g fill="#012731">
    <rect x="21" y="4" width="18" height="14"/>
    <rect x="4" y="21" width="4" height="4"/>
    <rect x="9" y="21" width="4" height="4"/>
    <rect x="14" y="21" width="4" height="4"/>
    <rect x="4" y="27" width="4" height="4"/>
    <rect x="9" y="27" width="4" height="4"/>
    <rect x="14" y="27" width="4" height="4"/>
    <rect x="4" y="33" width="4" height="4"/>
    <rect x="9" y="33" width="4" height="4"/>
    <rect x="14" y="33" width="4" height="4"/>
    <rect x="41" y="21" width="4" height="4"/>
    <rect x="46" y="21" width="4" height="4"/>
    <rect x="51" y="21" width="4" height="4"/>
    <rect x="41" y="27" width="4" height="4"/>
    <rect x="46" y="27" width="4" height="4"/>
    <rect x="51" y="27" width="4" height="4"/>
    <rect x="41" y="33" width="4" height="4"/>
    <rect x="46" y="33" width="4" height="4"/>
    <rect x="51" y="33" width="4" height="4"/>
    <rect x="21" y="41" width="4" height="4"/>
    <rect x="27" y="41" width="4" height="4"/>
    <rect x="33" y="41" width="4" height="4"/>
    <rect x="21" y="47" width="4" height="4"/>
    <rect x="27" y="47" width="4" height="4"/>
    <rect x="33" y="47" width="4" height="4"/>
    <rect x="5" y="5" width="4" height="4"/>
    <rect x="10" y="5" width="4" height="4"/>
    <rect x="5" y="10" width="4" height="4"/>
    <rect x="46" y="5" width="4" height="4"/>
    <rect x="51" y="5" width="4" height="4"/>
    <rect x="51" y="10" width="4" height="4"/>
    <rect x="5" y="46" width="4" height="4"/>
    <rect x="5" y="51" width="4" height="4"/>
    <rect x="10" y="51" width="4" height="4"/>
    <rect x="51" y="46" width="4" height="4"/>
    <rect x="46" y="51" width="4" height="4"/>
    <rect x="51" y="51" width="4" height="4"/>
  </g>
</svg>
