<svg xmlns="http://www.w3.org/2000/svg" viewBox="0 0 60 60" width="60" height="60">
  <defs>
    <clipPath id="city-ui-clip">
      <circle cx="30" cy="30" r="30"/>
    </clipPath>
  </defs>
  <circle cx="30" cy="30" r="30" fill="#7ec850"/>
  <g clip-path="url(#city-ui-clip)">
    <rect x="0" y="19" width="60" height="2" fill="#a08060"/>
    <rect x="0" y="39" width="60" height="2" fill="#a08060"/>
    <rect x="19" y="0" width="2" height="60" fill="#a08060"/>
    <rect x="39" y="0" width="2" height="60" fill="#a08060"/>
    <rect x="21" y="21" width="18" height="18" fill="#012731"/>
    <rect x="25" y="25" width="10" height="10" fill="#5aaa44"/>
    <rect x="21" y="4" width="18" height="14" fill="#012731"/>
    <rect x="4" y="21" width="4" height="4" fill="#012731"/>
    <rect x="9" y="21" width="4" height="4" fill="#012731"/>
    <rect x="14" y="21" width="4" height="4" fill="#012731"/>
    <rect x="4" y="27" width="4" height="4" fill="#012731"/>
    <rect x="9" y="27" width="4" height="4" fill="#012731"/>
    <rect x="14" y="27" width="4" height="4" fill="#012731"/>
    <rect x="4" y="33" width="4" height="4" fill="#012731"/>
    <rect x="9" y="33" width="4" height="4" fill="#012731"/>
    <rect x="14" y="33" width="4" height="4" fill="#012731"/>
    <rect x="41" y="21" width="4" height="4" fill="#012731"/>
    <rect x="46" y="21" width="4" height="4" fill="#012731"/>
    <rect x="51" y="21" width="4" height="4" fill="#012731"/>
    <rect x="41" y="27" width="4" height="4" fill="#012731"/>
    <rect x="46" y="27" width="4" height="4" fill="#012731"/>
    <rect x="51" y="27" width="4" height="4" fill="#012731"/>
    <rect x="41" y="33" width="4" height="4" fill="#012731"/>
    <rect x="46" y="33" width="4" height="4" fill="#012731"/>
    <rect x="51" y="33" width="4" height="4" fill="#012731"/>
    <rect x="21" y="41" width="4" height="4" fill="#012731"/>
    <rect x="27" y="41" width="4" height="4" fill="#012731"/>
    <rect x="33" y="41" width="4" height="4" fill="#012731"/>
    <rect x="21" y="47" width="4" height="4" fill="#012731"/>
    <rect x="27" y="47" width="4" height="4" fill="#012731"/>
    <rect x="33" y="47" width="4" height="4" fill="#012731"/>
    <rect x="5" y="5" width="4" height="4" fill="#012731"/>
    <rect x="10" y="5" width="4" height="4" fill="#012731"/>
    <rect x="5" y="10" width="4" height="4" fill="#012731"/>
    <rect x="46" y="5" width="4" height="4" fill="#012731"/>
    <rect x="51" y="5" width="4" height="4" fill="#012731"/>
    <rect x="51" y="10" width="4" height="4" fill="#012731"/>
    <rect x="5" y="46" width="4" height="4" fill="#012731"/>
    <rect x="5" y="51" width="4" height="4" fill="#012731"/>
    <rect x="10" y="51" width="4" height="4" fill="#012731"/>
    <rect x="51" y="46" width="4" height="4" fill="#012731"/>
    <rect x="46" y="51" width="4" height="4" fill="#012731"/>
    <rect x="51" y="51" width="4" height="4" fill="#012731"/>
  </g>
</svg>
