<svg xmlns="http://www.w3.org/2000/svg" viewBox="0 0 48 48" fill="none">
  <polygon points="19,7 26,11 26,19 19,23 12,19 12,11" stroke="currentColor" stroke-width="1.5" stroke-linejoin="round" fill="currentColor" fill-opacity="0.08"/>
  <polygon points="35,7 42,11 42,19 35,23 28,19 28,11" stroke="currentColor" stroke-width="1.5" stroke-linejoin="round" fill="currentColor" fill-opacity="0.08"/>
  <path d="M 13,13 C 17,13 22,14 27,15 C 32,16 37,15 41,15" stroke="currentColor" stroke-width="2" stroke-linecap="round" fill="none"/>
  <path d="M 13,17 C 17,17 22,18 27,17 C 32,16 37,17 41,17" stroke="currentColor" stroke-width="1.5" stroke-linecap="round" stroke-dasharray="3,2" fill="none" opacity="0.6"/>
  <polygon points="27,28 34,32 34,40 27,44 20,40 20,32" stroke="currentColor" stroke-width="1.5" stroke-linejoin="round" fill="currentColor" fill-opacity="0.15"/>
  <path d="M 21,36 C 24,36 30,36 33,36" stroke="currentColor" stroke-width="2" stroke-linecap="round" fill="none"/>
</svg>
